<?xml version="1.0" encoding="UTF-8"?>
<svg width="300" height="600" viewBox="0 0 300 600" xmlns="http://www.w3.org/2000/svg">
  <defs>
    <linearGradient id="grad2" x1="0%" y1="0%" x2="100%" y2="100%">
      <stop offset="0%" style="stop-color:#020306;stop-opacity:1" />
      <stop offset="100%" style="stop-color:#1a1f2e;stop-opacity:1" />
    </linearGradient>
  </defs>
  <rect width="300" height="600" fill="url(#grad2)"/>
  <rect x="10" y="10" width="280" height="100" rx="8" fill="#a37c1f" opacity="0.2"/>
  <text x="150" y="35" font-size="16" font-weight="bold" text-anchor="middle" fill="#a37c1f" font-family="Arial">Calculadora IMSS</text>
  <text x="150" y="60" font-size="14" font-weight="bold" text-anchor="middle" fill="#a37c1f" font-family="Arial">e INFONAVIT</text>
  <text x="150" y="95" font-size="11" text-anchor="middle" fill="#b8b8b8" font-family="Arial">2026</text>
  <rect x="15" y="130" width="270" height="75" rx="6" fill="#ffffff" opacity="0.1"/>
  <text x="30" y="155" font-size="12" fill="#e0e0e0" font-family="Arial">Salario Diario</text>
  <rect x="30" y="165" width="240" height="25" rx="4" fill="#ffffff" opacity="0.05" stroke="#a37c1f" stroke-width="1"/>
  <text x="150" y="185" font-size="11" text-anchor="middle" fill="#a37c1f" font-family="Arial">$800.00</text>
  <rect x="15" y="220" width="130" height="70" rx="6" fill="#ffffff" opacity="0.08"/>
  <text x="40" y="240" font-size="10" fill="#e0e0e0" font-family="Arial">IMSS Patrón</text>
  <text x="40" y="265" font-size="16" font-weight="bold" fill="#a37c1f" font-family="Arial">$3,240</text>
  <rect x="155" y="220" width="130" height="70" rx="6" fill="#ffffff" opacity="0.08"/>
  <text x="180" y="240" font-size="10" fill="#e0e0e0" font-family="Arial">IMSS Obrero</text>
  <text x="180" y="265" font-size="16" font-weight="bold" fill="#a37c1f" font-family="Arial">$1,620</text>
  <rect x="15" y="310" width="270" height="85" rx="6" fill="#ffffff" opacity="0.08"/>
  <text x="30" y="330" font-size="11" fill="#e0e0e0" font-family="Arial">Desglose por Ramo</text>
  <line x1="30" y1="340" x2="270" y2="340" stroke="#a37c1f" stroke-width="1" opacity="0.3"/>
  <text x="30" y="358" font-size="10" fill="#b8b8b8" font-family="Arial">Enfermedades: $1,620</text>
  <text x="30" y="375" font-size="10" fill="#b8b8b8" font-family="Arial">Invalidez: $900</text>
  <text x="30" y="392" font-size="10" fill="#b8b8b8" font-family="Arial">Retiro: $720</text>
  <rect x="30" y="470" width="240" height="45" rx="4" fill="#a37c1f"/>
  <text x="150" y="502" font-size="13" font-weight="bold" text-anchor="middle" fill="#020306" font-family="Arial">Calcular Cuotas</text>
</svg>
